<?xml version="1.0" encoding="UTF-8"?>
<svg id="Layer_2" data-name="Layer 2" xmlns="http://www.w3.org/2000/svg" viewBox="0 0 30.46 27.51">
  <defs>
    <style>
      .cls-1 {
        fill: #ff5704;
      }
    </style>
  </defs>
  <g id="Layer_2-2" data-name="Layer 2">
    <g id="Layer_1-2" data-name="Layer 1-2">
      <path class="cls-1" d="M20.75,1.75c.87,0,1.68.47,2.12,1.22l5.52,9.56c.44.76.44,1.69,0,2.44l-5.52,9.56c-.44.75-1.24,1.22-2.12,1.22h-11.04c-.87,0-1.68-.47-2.12-1.22L2.08,14.98c-.44-.76-.44-1.69,0-2.44L7.6,2.97c.44-.75,1.24-1.22,2.12-1.22h11.04M20.75,0h-11.04c-1.5,0-2.88.8-3.63,2.1L.56,11.66c-.75,1.3-.75,2.9,0,4.2l5.52,9.56c.75,1.3,2.13,2.1,3.63,2.1h11.04c1.5,0,2.88-.8,3.63-2.1l5.52-9.56c.75-1.3.75-2.9,0-4.2l-5.52-9.56C23.63.8,22.25,0,20.75,0Z"/>
    </g>
  </g>
</svg>