<?xml version="1.0" encoding="UTF-8"?>
<svg id="Layer_2" data-name="Layer 2" xmlns="http://www.w3.org/2000/svg" viewBox="0 0 389.81 352">
  <defs>
    <style>
      .cls-1 {
        fill: #ff5704;
      }
    </style>
  </defs>
  <g id="Layer_1-2" data-name="Layer 1">
    <path class="cls-1" d="M265.53,22.43c11.17.02,21.48,5.97,27.08,15.63l70.61,122.3c5.57,9.68,5.57,21.59,0,31.27l-70.61,122.31c-5.6,9.66-15.91,15.61-27.08,15.63H124.31c-11.17-.02-21.48-5.97-27.08-15.63L26.62,191.63c-5.57-9.68-5.57-21.59,0-31.27L97.23,38.06c5.6-9.66,15.91-15.61,27.08-15.63h141.22M265.53,0H124.31c-19.19,0-36.91,10.24-46.51,26.85L7.19,149.15c-9.59,16.62-9.59,37.08,0,53.7l70.61,122.3c9.6,16.61,27.32,26.85,46.51,26.85h141.22c19.17-.01,36.88-10.25,46.47-26.85l70.61-122.3c9.6-16.61,9.6-37.09,0-53.7l-70.61-122.3C302.42,10.25,284.71.01,265.53,0Z"/>
  </g>
</svg>